<svg width="612" height="612" viewBox="0 0 612 612" fill="none" xmlns="http://www.w3.org/2000/svg">
<g clip-path="url(#clip0_42_38)">
<path d="M0 223.747C0 39.4914 39.4914 0 223.747 0H388.253C572.509 0 612 39.4914 612 223.747V388.253C612 572.509 572.509 612 388.253 612H223.747C39.4914 612 0 572.509 0 388.253V223.747Z" fill="white"/>
<path d="M270.266 69.6235L270.656 69.6C343.824 66.1166 415.402 91.6817 469.808 140.728C532.653 197.318 565.221 272.681 569.784 356.683C569.937 359.445 570.226 365.65 569.442 368.134C566.064 378.892 556.749 391.649 549.416 399.744C515.069 437.651 462.891 456.695 413.113 462.515C402.9 463.708 394.222 463.921 384.023 464.452C366.282 492.064 339.951 512.777 310.402 526.486C291.978 534.744 272.265 539.76 252.132 541.305C197.929 545.783 144.171 528.508 102.722 493.295C58.3059 454.556 30.946 399.872 26.5715 341.099C22.0888 274.127 44.1107 208.077 87.8867 157.195C126.402 113.131 178.86 83.603 236.512 73.5367C248.541 71.3582 258.216 70.4974 270.266 69.6235Z" fill="black"/>
<path d="M250.521 232.481C250.797 232.933 250.613 233.063 250.045 233.534C219.07 259.185 205.766 307.122 227.516 342.733C235.871 356.416 252.269 368.085 267.948 371.328C280.781 373.983 295.52 372.748 306.69 365.44C322.102 356.061 329.397 334.29 318.993 318.595C313.537 310.326 300.763 303.655 291.546 309.799C287.861 312.259 285.376 318.139 288.39 321.884C292.142 326.362 301.301 322.582 304.387 327.989C311.906 341.16 298.018 354.266 284.566 350.34C268.386 345.616 262.982 327.953 267.152 313.145C269.982 303.1 276.902 296.244 285.693 291.485C307.502 281.051 332.672 292.642 342.86 313.473C349.958 327.989 350.246 344.032 345.277 359.229C332.996 396.79 287.796 412.666 252.174 400.332C231.037 392.988 212.937 376.835 203.131 356.78C192.717 335.585 191.103 311.134 198.643 288.754C207.738 262.311 225.772 244.475 250.521 232.481Z" fill="white"/>
<path d="M315.929 69.2998C316.377 69.2468 316.485 69.3489 316.967 69.4831C323.727 76.0582 334.023 93.1421 338.138 101.892C349.967 127.024 353.405 155.292 347.948 182.526C346.229 190.725 343.748 197.689 340.946 205.533C339.355 201.753 335.792 196.393 333.603 192.816C321.997 173.863 308.268 159.364 291.156 145.151C270.848 129.459 253.066 119.859 228.355 112.221C216.157 108.451 208.094 106.231 195.151 104.944C233.519 82.1431 271.412 71.0252 315.929 69.2998Z" fill="white"/>
<path d="M391.11 79.5338C399.942 82.4064 408.673 85.5702 417.298 89.0202C419.733 99.9495 422.666 110.342 424.162 121.497C424.802 126.279 424.329 131.244 425.034 135.97C425.229 137.265 425.4 138.204 426.536 138.983C427.54 139.671 429.117 140.2 430.33 139.803C431.124 139.544 431.658 139.086 432.075 138.363C435.353 132.63 428.91 101.07 427.116 93.7243C441.401 99.9836 454.792 108.583 467.586 117.445C469.803 118.983 471.84 120.647 473.815 122.486C475.68 131.44 476.068 142.188 475.919 151.322C461.267 136.889 443.768 146.122 439.237 163.755C434.218 182.862 446.983 201.144 446.772 219.694C446.623 233.157 436.937 248.551 427.504 257.633C424.229 260.64 420.922 263.616 417.587 266.56C411.347 257.148 407.912 253.147 400.44 244.77C413.572 226.255 423.104 208.313 427.618 185.76C428.686 180.422 421.307 178.556 419.797 184.375C414.611 204.34 407.257 222.733 394.161 238.9C389.686 234.561 386.319 231.908 381.414 228.206C383.944 223.847 386.333 219.409 388.583 214.898C391.491 208.927 393.719 202.78 395.78 196.481C409.079 155.85 404.815 119.063 391.11 79.5338Z" fill="white"/>
<path d="M575.256 277.448C577.783 279.808 582.86 311.251 583.208 316.313C583.767 324.386 585.974 338.596 584.842 346.791C583.055 352.814 578.114 360.228 574.302 364.831C540.325 405.852 488.699 422.615 437.686 428.086C434.244 428.449 430.912 428.624 427.459 428.819C431.147 421.209 433.496 415.065 436.351 407.123C447.019 403.966 458.649 398.772 468.516 393.775C508.73 373.516 541.895 341.597 563.673 302.192C567.133 295.923 573.06 284.165 575.256 277.448Z" fill="white"/>
<path d="M529.67 179.976C535.978 185.53 550.765 211.585 554.784 220.168C540.374 277.466 507.059 321.759 456.441 352.116C452.383 354.501 448.208 356.875 443.95 358.869C444.328 344.406 442.231 329.145 438.71 315.131C490.393 284.682 520.252 238.689 529.67 179.976Z" fill="white"/>
<path d="M169.66 118.499C188.482 117.851 212.99 124.535 230.514 131.158C267.55 145.157 294.567 169.955 315.829 202.986C304.53 201.616 291.022 202.173 279.789 203.733C261.213 188.973 238.95 176.423 216.406 169.024C188.37 159.64 156.063 157.207 126.732 159.763C133.315 152.128 137.005 146.845 144.76 139.882C148.076 139.377 152.801 139.452 156.261 139.424C173.082 139.289 189.956 141.431 206.207 145.768C212.677 147.569 218.672 149.994 225.052 152.17C229.699 153.756 234.222 151.489 230.309 146.565C229.11 145.058 227.214 144.426 225.455 143.754C208.439 137.249 190.551 133.255 172.391 131.837C166.256 131.351 160.237 131.283 154.029 131.219C157.446 127.585 165.473 121.127 169.66 118.499Z" fill="white"/>
<path d="M178.83 274.248L183.757 274.086C180.144 283.183 176.964 294.464 176.262 304.146C173.517 305.381 170.786 306.645 168.069 307.94C142.239 320.357 118.972 341.319 105.893 366.917C101.915 374.702 99.555 381.213 96.6742 389.442C93.7713 386.203 92.2136 384.388 90.0881 380.614C81.5752 361.086 76.5753 331.726 76.0659 310.6C105.933 286.166 140.944 276.363 178.83 274.248Z" fill="white"/>
<path d="M331.618 69C336.014 69.6105 341.254 69.6834 345.469 70.216C354.877 71.4049 373.127 74.0166 381.532 77.624C382.233 79.0585 382.842 80.7195 383.422 82.2305C397.682 119.305 400.597 161.827 386.206 199.321C383.913 205.299 381.446 210.542 378.57 216.213C377.225 218.802 375.715 221.307 374.234 223.823C369.995 219.895 355.71 212.986 349.726 211.095C353.528 203.253 357.073 188.902 358.551 180.253C365.3 140.75 354.756 101.435 331.618 69Z" fill="white"/>
<path d="M491.401 136.858C503.083 147.35 512.855 157.396 522.533 169.927C522.242 172.663 521.925 175.396 521.583 178.125C516.774 216.937 498.833 252.937 470.744 280.147C464.244 286.458 456.423 292.627 449.276 298.134C445.264 301.102 440.487 304.132 436.283 306.919C433.496 298.49 430.046 288.708 425.839 280.851C431.905 276.352 440.209 268.394 445.371 263.025C471.88 235.436 489.037 198.419 491.305 160.087C491.782 151.977 491.629 145.044 491.401 136.858Z" fill="white"/>
<path d="M139.138 167.098C146.673 166.223 160.016 167.011 167.59 167.667C207.276 171.11 236.686 182.475 268.701 205.758C254.473 209.629 246.982 212.219 234.12 218.779C230.414 216.731 224.045 214.495 219.998 212.999C178.011 198.247 137.423 200.327 95.4868 213.309C100.272 202.051 112.457 177.623 120.451 168.869C126.19 167.813 133.292 167.472 139.138 167.098Z" fill="white"/>
<path d="M268.83 419.927C269.271 419.984 269.328 420.112 269.759 420.387C271.137 423.669 271.983 431.493 272.305 435.277C274.012 455.332 269.582 475.682 258.186 492.427C255.177 496.848 250.959 501.262 247.446 505.413C230.371 502.682 218.211 500.682 201.642 494.445C195.678 492.331 190.755 490.035 185.039 487.369C190.431 486.639 194.244 485.443 199.263 483.165C212.826 476.91 223.984 466.413 231.05 453.256C233.233 449.117 234.652 445.183 236.291 440.819C245.617 436.505 255.076 430.71 263.114 424.32C265.011 422.811 266.861 421.348 268.83 419.927Z" fill="white"/>
<path d="M152.727 211.285C179.156 209.69 201.274 215.221 225.827 223.659C219.727 228.072 213.654 232.487 208.316 237.813C185.18 232.04 161.072 233.944 137.874 237.962C114.653 242.718 102.059 248.235 81.2197 258.033C83.9478 246.505 87.2708 234.394 91.6413 223.386C110.507 215.939 132.525 212.252 152.727 211.285Z" fill="white"/>
<path d="M564.388 243.341C565.908 244.472 571.183 260.722 570.792 262.841C569.852 267.97 566.759 275.782 564.644 280.677C541.599 334.079 497.666 373.406 444.235 395.259C442.705 395.885 440.846 396.462 439.259 397C440.693 390.222 441.914 383.405 442.925 376.553C447.752 374.307 453.166 371.705 457.844 369.188C498.922 347.129 532.155 312.878 552.965 271.154C557.066 262.882 561.754 252.147 564.388 243.341Z" fill="white"/>
<path d="M175.11 313.632L175.339 313.75C175.76 314.654 175.673 316.309 175.673 317.384C175.678 324.012 176.134 330.071 177.518 336.574C175.437 337.806 173.809 339.18 171.964 340.693C146.218 361.841 134.54 385.31 131.321 418.076C126.434 414.915 121.679 411.555 117.068 408.006C112.178 404.247 107.879 400.218 103.375 396.017C104.758 392.899 106.442 386.086 107.974 382.202C120.566 350.261 144.213 327.615 175.11 313.632Z" fill="white"/>
<path d="M336.962 399.032C363.025 412.278 377.762 430.211 385.54 458.151C382.785 460.241 378.282 464.765 375.52 467.257C371.362 471.005 368.041 473.579 363.517 476.907C359.736 479.598 356.273 481.776 352.329 484.233C351.311 452.591 342.301 432.603 321.775 409.035C326.692 406.821 332.697 402.332 336.962 399.032Z" fill="white"/>
<path d="M354.632 378.19L358.939 378.845C383.461 382.651 400.537 392.105 415.263 412.249C412.697 420.985 403.175 436.131 397.469 443.628L392.147 450.469C385.558 424.822 365.563 405.486 343.095 392.977C348.014 388.222 350.958 383.808 354.632 378.19Z" fill="white"/>
<path d="M313.694 413.015C314.686 413.317 314.971 413.969 315.795 414.876C335.07 436.038 345.4 460.112 343.813 488.985C335.672 492.982 331.286 494.755 322.846 497.727C318.105 499.354 313.28 500.728 308.392 501.846C315.972 472.012 313.315 445.286 300.059 417.535C304.818 416.232 309.05 414.68 313.694 413.015Z" fill="white"/>
<path d="M287.762 419.895L291.895 419.536C292.128 419.984 292.354 420.436 292.572 420.892C305.29 447.209 308.29 476.241 298.607 504.106C290.051 505.309 281.442 506.103 272.811 506.488C267.924 506.619 262.92 506.516 258.021 506.47C280.214 476.996 283.527 456.222 278.712 420.394C281.712 420.269 284.779 420.184 287.762 419.895Z" fill="white"/>
<path d="M113.595 424.954C115.577 425.584 123.557 430.952 126 432.372C158.106 451.035 190.64 455.236 226.036 444.599C221.918 453.573 219.927 456.763 212.962 463.861C201.016 475.156 191.094 479.078 174.936 481.57C169.136 478.822 164.582 475.554 159.398 471.948C140.143 458.543 127.15 443.731 113.595 424.954Z" fill="white"/>
<path d="M308.889 221.556C315.73 221.09 322.601 221.753 329.226 223.52C344.13 239.469 347.79 262.981 342.514 283.61C336.484 278.107 332.586 275.754 325.139 272.664L317.033 269.695C307.802 249.713 297.315 239.104 276.665 230.654C286.736 225.172 297.51 222.424 308.889 221.556Z" fill="white"/>
<path d="M165.256 242.552C177.805 241.498 189.973 242.888 202.333 244.731C197.85 249.552 195.413 253.103 191.874 258.475C158.742 258.146 130.389 262.547 100.089 276.971C92.1205 280.848 83.9711 285.995 76.6289 290.979C77.165 283.678 77.9955 276.402 79.1178 269.17C85.1568 265.923 90.2208 262.885 96.5844 259.913C118.237 250.023 141.504 244.141 165.256 242.552Z" fill="white"/>
<path d="M179.293 345.224C179.65 345.577 179.661 345.488 179.779 345.904C181.678 352.582 184.223 359.125 187.562 365.24C169.305 386.933 165.906 405.86 166.87 433.084C161.843 431.368 157.2 430.179 152.04 428.246C147.257 426.338 143.54 424.391 139.082 421.953C140.03 416.122 140.164 410.964 141.492 404.834C147.274 378.144 158.534 361.919 179.293 345.224Z" fill="white"/>
<path d="M377.84 351.133C380.656 350.767 386.807 351.076 389.605 351.351C404.734 352.839 413.836 357.124 425.967 365.653C425.832 378.119 422.208 391.172 418.912 403.097C417.563 401.392 415.178 398.925 413.651 397.249C402.94 385.235 388.334 377.589 372.935 373.193C368.61 371.954 362.943 371.231 358.419 370.558C361.171 364.913 362.719 358.99 364.132 352.917C368.397 351.863 373.43 351.479 377.84 351.133Z" fill="white"/>
<path d="M385.782 255.748C390.282 258.525 401.737 274.636 405.015 279.791C407.756 284.091 409.333 287.038 408.037 292.16C403.15 311.472 394.781 322.015 378.442 332.328C373.569 335.272 370.96 336.589 365.649 338.621C365.877 329.455 364.962 323.923 362.73 315.259C379.279 299.326 389.292 279.26 385.782 255.748Z" fill="white"/>
<path d="M342.546 227.637C351.446 230.238 362.769 236.823 370.226 242.322C375.463 246.184 376.018 247.129 377 253.049C379.912 270.601 376.755 285.112 366.175 299.497C363.954 302.355 362.345 304.203 359.853 306.841C356.995 300.996 353.813 294.268 349.018 289.786C356.789 270.35 353.674 245.173 342.546 227.637Z" fill="white"/>
<path d="M240.806 271.744C253.067 270.78 260.242 272.254 270.939 277.644C262.783 282.503 254.007 293.467 250.94 302.402C246.045 316.662 246.308 328.376 252.533 341.864C254.205 345.338 256.206 348.115 258.468 351.215C242.371 341.109 232.21 327.704 230.706 308.143C229.863 297.169 231.26 282.428 237.234 272.85C237.917 271.755 239.637 271.812 240.806 271.744Z" fill="white"/>
<path d="M191.626 372.901C192.142 373.317 196.444 378.984 197.269 380.009C200.354 383.8 203.548 387.506 206.848 391.112C199.265 408.732 199.155 415.919 201.305 434.921L191.884 435.33C186.418 435.437 180.95 435.177 175.519 434.55C173.447 408.554 176.291 394.326 191.626 372.901Z" fill="white"/>
<path d="M266.478 236.358C277.918 238.498 291.983 247.266 299.357 256.244C302.686 260.298 304.812 264.188 307.731 268.44C298.252 268.005 291.121 268.924 282.07 271.688C281.055 272.034 279.952 272.468 278.937 272.844C267.398 264.738 255.357 263.008 241.711 263.091C248.752 252.358 255.781 243.772 266.478 236.358Z" fill="white"/>
<path d="M458.491 152.761C461.261 152.548 463.948 152.827 466.362 154.244C476.471 160.186 474.688 170.281 472.826 179.415C469.896 193.802 465.062 205.058 458.182 217.655L454.917 222.979C455.263 216.962 454.747 212.237 453.422 206.34C450.069 191.435 437.496 160.32 458.491 152.761Z" fill="white"/>
<path d="M414.637 298.878C415.445 299.76 417.2 305.054 417.733 306.581C423.397 322.823 426.373 338.39 426.341 355.59C418.228 350.439 409.29 346.719 399.921 344.594C392.848 343.049 384.315 342.651 377.043 343.071C378.367 342.17 379.987 341.216 381.386 340.387C397.614 330.729 409.404 317.345 414.637 298.878Z" fill="white"/>
<path d="M213.001 396.765C223.938 405.746 235.796 411.74 249.194 416.104C244.28 419.682 240.932 421.561 235.605 424.281C225.968 429.033 219.883 431.158 209.458 433.458C207.307 419.144 207.674 410.494 213.001 396.765Z" fill="white"/>
</g>
<defs>
<clipPath id="clip0_42_38">
<rect width="612" height="612" fill="white"/>
</clipPath>
</defs>
</svg>
