<svg width="612" height="612" viewBox="0 0 612 612" fill="none" xmlns="http://www.w3.org/2000/svg">
<g clip-path="url(#clip0_20_2)">
<path d="M276.058 107.523L276.385 107.504C337.809 104.579 397.897 126.041 443.57 167.215C496.328 214.721 523.668 277.987 527.499 348.505C527.627 350.824 527.869 356.033 527.212 358.119C524.376 367.149 516.556 377.859 510.4 384.655C481.566 416.477 437.764 432.464 395.975 437.35C387.402 438.351 380.117 438.53 371.555 438.976C356.662 462.156 334.557 479.544 309.752 491.052C294.284 497.985 277.735 502.196 260.834 503.493C215.331 507.252 170.203 492.75 135.407 463.19C98.1203 430.668 75.1521 384.762 71.4798 335.423C67.7166 279.201 86.2036 223.753 122.953 181.038C155.286 144.047 199.324 119.259 247.722 110.808C257.82 108.98 265.942 108.257 276.058 107.523Z" fill="black"/>
<path d="M259.482 244.24C259.714 244.619 259.56 244.729 259.083 245.124C233.08 266.657 221.911 306.9 240.17 336.795C247.184 348.282 260.95 358.077 274.112 360.8C284.885 363.029 297.258 361.992 306.635 355.857C319.573 347.983 325.698 329.707 316.964 316.531C312.383 309.589 301.659 303.989 293.922 309.147C290.828 311.212 288.743 316.149 291.273 319.292C294.423 323.052 302.111 319.878 304.702 324.417C311.014 335.474 299.355 346.477 288.063 343.181C274.48 339.215 269.943 324.387 273.444 311.956C275.819 303.523 281.628 297.768 289.009 293.773C307.317 285.014 328.447 294.744 336.999 312.231C342.958 324.417 343.2 337.886 339.028 350.643C328.719 382.175 290.774 395.503 260.87 385.148C243.125 378.983 227.931 365.423 219.699 348.587C210.956 330.794 209.602 310.268 215.931 291.481C223.566 269.281 238.706 254.309 259.482 244.24Z" fill="white"/>
<path d="M314.391 107.252C314.767 107.207 314.858 107.293 315.263 107.406C320.938 112.925 329.581 127.267 333.035 134.612C342.965 155.71 345.852 179.44 341.271 202.304C339.828 209.186 337.745 215.032 335.393 221.617C334.057 218.444 331.066 213.944 329.228 210.942C319.486 195.031 307.96 182.859 293.595 170.927C276.546 157.754 261.619 149.695 240.875 143.283C230.634 140.118 223.865 138.255 213 137.174C245.21 118.033 277.02 108.7 314.391 107.252Z" fill="white"/>
<path d="M377.505 115.843C384.919 118.254 392.249 120.91 399.49 123.807C401.534 132.982 403.996 141.706 405.251 151.07C405.789 155.085 405.391 159.252 405.983 163.22C406.148 164.307 406.291 165.095 407.244 165.749C408.087 166.328 409.411 166.771 410.43 166.438C411.096 166.221 411.544 165.836 411.894 165.229C414.646 160.416 409.237 133.923 407.731 127.756C419.723 133.01 430.965 140.229 441.705 147.669C443.567 148.96 445.276 150.357 446.935 151.9C448.5 159.417 448.826 168.441 448.701 176.108C436.401 163.992 421.71 171.743 417.906 186.545C413.693 202.586 424.409 217.933 424.233 233.506C424.107 244.808 415.976 257.731 408.057 265.355C405.308 267.879 402.532 270.377 399.732 272.849C394.493 264.947 391.609 261.589 385.337 254.556C396.361 239.014 404.363 223.951 408.153 205.019C409.049 200.537 402.854 198.971 401.587 203.856C397.233 220.616 391.06 236.056 380.066 249.628C376.309 245.986 373.483 243.758 369.365 240.651C371.489 236.992 373.495 233.266 375.383 229.479C377.825 224.467 379.695 219.306 381.425 214.019C392.59 179.909 389.01 149.027 377.505 115.843Z" fill="white"/>
<path d="M532.092 281.989C534.214 283.97 538.475 310.366 538.768 314.615C539.237 321.393 541.09 333.322 540.139 340.201C538.639 345.257 534.492 351.482 531.291 355.346C502.768 389.783 459.429 403.854 416.604 408.447C413.714 408.752 410.917 408.899 408.019 409.063C411.114 402.674 413.087 397.516 415.483 390.849C424.439 388.199 434.202 383.839 442.485 379.643C476.244 362.637 504.086 335.841 522.368 302.761C525.273 297.498 530.248 287.628 532.092 281.989Z" fill="white"/>
<path d="M493.824 200.162C499.119 204.825 511.532 226.698 514.906 233.903C502.81 282.004 474.842 319.187 432.349 344.671C428.942 346.674 425.437 348.667 421.863 350.34C422.18 338.199 420.42 325.388 417.464 313.623C460.851 288.061 485.917 249.451 493.824 200.162Z" fill="white"/>
<path d="M191.6 148.553C207.401 148.01 227.975 153.621 242.686 159.181C273.777 170.933 296.458 191.75 314.307 219.479C304.821 218.329 293.481 218.797 284.051 220.106C268.457 207.715 249.768 197.18 230.843 190.968C207.307 183.091 180.185 181.048 155.562 183.194C161.089 176.784 164.187 172.35 170.697 166.504C173.481 166.081 177.447 166.143 180.352 166.12C194.472 166.007 208.638 167.805 222.281 171.445C227.712 172.957 232.745 174.993 238.101 176.82C242.002 178.151 245.798 176.248 242.514 172.115C241.508 170.849 239.915 170.319 238.439 169.755C224.154 164.294 209.137 160.941 193.892 159.75C188.743 159.342 183.689 159.285 178.478 159.232C181.347 156.181 188.085 150.759 191.6 148.553Z" fill="white"/>
<path d="M199.298 279.303L203.435 279.167C200.402 286.803 197.732 296.273 197.143 304.401C194.838 305.438 192.546 306.499 190.265 307.587C168.581 318.01 149.049 335.608 138.069 357.097C134.73 363.632 132.749 369.098 130.33 376.007C127.893 373.287 126.586 371.763 124.801 368.596C117.655 352.202 113.457 327.555 113.03 309.819C138.103 289.308 167.494 281.078 199.298 279.303Z" fill="white"/>
<path d="M327.562 107C331.252 107.512 335.651 107.574 339.189 108.021C347.087 109.019 362.408 111.211 369.463 114.24C370.052 115.444 370.563 116.838 371.05 118.107C383.021 149.23 385.468 184.927 373.387 216.403C371.462 221.421 369.391 225.822 366.977 230.583C365.847 232.756 364.58 234.86 363.337 236.971C359.778 233.674 347.786 227.874 342.763 226.287C345.954 219.703 348.931 207.656 350.171 200.395C355.837 167.233 346.985 134.229 327.562 107Z" fill="white"/>
<path d="M461.697 163.966C471.504 172.773 479.707 181.207 487.832 191.727C487.587 194.024 487.321 196.318 487.035 198.609C482.997 231.191 467.936 261.412 444.356 284.254C438.899 289.553 432.334 294.731 426.334 299.354C422.966 301.846 418.955 304.389 415.426 306.729C413.087 299.653 410.191 291.441 406.659 284.846C411.751 281.069 418.722 274.388 423.055 269.881C445.309 246.721 459.713 215.645 461.616 183.466C462.017 176.658 461.888 170.838 461.697 163.966Z" fill="white"/>
<path d="M165.978 189.352C172.303 188.617 183.504 189.278 189.862 189.83C223.178 192.719 247.867 202.26 274.744 221.806C262.8 225.056 256.511 227.23 245.714 232.738C242.602 231.018 237.256 229.141 233.858 227.885C198.611 215.501 164.538 217.247 129.333 228.145C133.35 218.694 143.579 198.187 150.29 190.839C155.108 189.952 161.07 189.665 165.978 189.352Z" fill="white"/>
<path d="M274.852 401.598C275.222 401.646 275.27 401.754 275.632 401.984C276.789 404.739 277.499 411.307 277.769 414.484C279.202 431.32 275.483 448.404 265.916 462.461C263.39 466.172 259.849 469.877 256.9 473.362C242.566 471.07 232.358 469.39 218.448 464.155C213.442 462.38 209.309 460.452 204.51 458.214C209.037 457.602 212.238 456.598 216.451 454.685C227.837 449.435 237.204 440.622 243.136 429.577C244.969 426.102 246.16 422.8 247.536 419.136C255.365 415.515 263.306 410.65 270.053 405.286C271.646 404.019 273.199 402.791 274.852 401.598Z" fill="white"/>
<path d="M177.385 226.446C199.572 225.107 218.14 229.751 238.752 236.834C233.631 240.538 228.533 244.245 224.052 248.716C204.629 243.87 184.391 245.468 164.916 248.841C145.423 252.833 134.85 257.465 117.356 265.69C119.646 256.013 122.436 245.846 126.105 236.604C141.942 230.353 160.426 227.258 177.385 226.446Z" fill="white"/>
<path d="M522.968 253.357C524.244 254.306 528.673 267.948 528.344 269.726C527.555 274.032 524.959 280.591 523.184 284.7C503.837 329.53 466.956 362.544 422.102 380.889C420.817 381.415 419.257 381.899 417.924 382.351C419.129 376.661 420.154 370.938 421.002 365.186C425.054 363.3 429.6 361.116 433.526 359.003C468.011 340.485 495.909 311.732 513.379 276.705C516.821 269.761 520.757 260.749 522.968 253.357Z" fill="white"/>
<path d="M196.176 312.365L196.368 312.464C196.721 313.223 196.648 314.612 196.649 315.515C196.652 321.079 197.035 326.165 198.197 331.625C196.45 332.659 195.083 333.812 193.534 335.082C171.921 352.835 162.118 372.537 159.415 400.044C155.313 397.391 151.321 394.57 147.45 391.59C143.345 388.435 139.736 385.052 135.955 381.526C137.116 378.908 138.53 373.189 139.816 369.928C150.387 343.115 170.238 324.103 196.176 312.365Z" fill="white"/>
<path d="M332.047 384.057C353.928 395.176 366.299 410.231 372.828 433.686C370.516 435.44 366.735 439.239 364.416 441.33C360.926 444.477 358.138 446.638 354.34 449.432C351.166 451.691 348.259 453.52 344.948 455.582C344.093 429.019 336.53 412.239 319.299 392.454C323.426 390.595 328.467 386.827 332.047 384.057Z" fill="white"/>
<path d="M346.881 366.561L350.497 367.11C371.083 370.305 385.418 378.242 397.781 395.152C395.626 402.486 387.632 415.201 382.842 421.494L378.375 427.238C372.844 405.707 356.058 389.475 337.196 378.974C341.326 374.982 343.797 371.276 346.881 366.561Z" fill="white"/>
<path d="M312.515 395.795C313.347 396.049 313.587 396.596 314.279 397.358C330.46 415.123 339.132 435.333 337.799 459.571C330.965 462.927 327.284 464.415 320.198 466.91C316.218 468.276 312.168 469.429 308.065 470.368C314.427 445.323 312.197 422.887 301.068 399.59C305.063 398.496 308.616 397.193 312.515 395.795Z" fill="white"/>
<path d="M290.745 401.571L294.214 401.27C294.41 401.646 294.6 402.026 294.782 402.408C305.459 424.5 307.978 448.873 299.849 472.265C292.666 473.275 285.44 473.942 278.193 474.264C274.091 474.375 269.89 474.288 265.777 474.249C284.408 449.506 287.19 432.067 283.147 401.99C285.666 401.885 288.241 401.813 290.745 401.571Z" fill="white"/>
<path d="M144.534 405.818C146.199 406.347 152.897 410.853 154.948 412.045C181.901 427.713 209.212 431.239 238.927 422.31C235.47 429.843 233.799 432.521 227.951 438.48C217.923 447.961 209.594 451.254 196.029 453.346C191.161 451.039 187.337 448.296 182.985 445.269C166.821 434.015 155.913 421.581 144.534 405.818Z" fill="white"/>
<path d="M308.481 235.068C314.224 234.677 319.993 235.234 325.554 236.717C338.066 250.106 341.138 269.844 336.709 287.162C331.647 282.542 328.375 280.567 322.123 277.972L315.318 275.48C307.569 258.706 298.765 249.8 281.43 242.706C289.884 238.104 298.929 235.797 308.481 235.068Z" fill="white"/>
<path d="M187.903 252.695C198.438 251.81 208.653 252.976 219.029 254.523C215.265 258.571 213.22 261.552 210.249 266.061C182.435 265.785 158.633 269.48 133.197 281.589C126.507 284.843 119.666 289.164 113.502 293.348C113.952 287.219 114.65 281.111 115.592 275.04C120.661 272.314 124.913 269.764 130.255 267.269C148.432 258.966 167.964 254.028 187.903 252.695Z" fill="white"/>
<path d="M199.688 338.886C199.988 339.182 199.996 339.107 200.096 339.457C201.69 345.063 203.826 350.555 206.629 355.689C191.303 373.9 188.45 389.789 189.258 412.643C185.038 411.203 181.141 410.204 176.809 408.582C172.794 406.98 169.673 405.346 165.931 403.299C166.727 398.404 166.839 394.074 167.954 388.928C172.808 366.522 182.26 352.901 199.688 338.886Z" fill="white"/>
<path d="M366.365 343.847C368.728 343.539 373.892 343.799 376.241 344.029C388.941 345.278 396.582 348.876 406.766 356.036C406.653 366.501 403.611 377.459 400.843 387.47C399.711 386.038 397.709 383.967 396.427 382.56C387.435 372.474 375.174 366.056 362.247 362.365C358.616 361.325 353.859 360.719 350.061 360.154C352.37 355.414 353.67 350.442 354.857 345.344C358.437 344.459 362.662 344.137 366.365 343.847Z" fill="white"/>
<path d="M373.032 263.772C376.809 266.103 386.425 279.628 389.177 283.956C391.478 287.565 392.802 290.04 391.715 294.34C387.612 310.551 380.586 319.403 366.87 328.06C362.779 330.531 360.589 331.637 356.13 333.343C356.321 325.648 355.553 321.004 353.68 313.731C367.572 300.355 375.978 283.51 373.032 263.772Z" fill="white"/>
<path d="M336.736 240.173C344.207 242.357 353.712 247.885 359.973 252.502C364.368 255.743 364.835 256.536 365.659 261.506C368.104 276.241 365.453 288.423 356.572 300.499C354.707 302.898 353.357 304.449 351.265 306.664C348.865 301.757 346.194 296.109 342.169 292.347C348.692 276.031 346.077 254.894 336.736 240.173Z" fill="white"/>
<path d="M251.326 277.201C261.619 276.391 267.642 277.629 276.623 282.154C269.776 286.233 262.409 295.437 259.834 302.937C255.725 314.908 255.945 324.743 261.171 336.065C262.575 338.982 264.255 341.313 266.153 343.915C252.64 335.432 244.11 324.178 242.848 307.757C242.14 298.544 243.313 286.17 248.328 278.129C248.901 277.21 250.345 277.258 251.326 277.201Z" fill="white"/>
<path d="M210.041 362.12C210.474 362.47 214.086 367.227 214.778 368.088C217.368 371.27 220.049 374.381 222.819 377.408C216.453 392.2 216.361 398.233 218.166 414.185L210.258 414.529C205.668 414.618 201.079 414.4 196.519 413.874C194.779 392.051 197.168 380.106 210.041 362.12Z" fill="white"/>
<path d="M272.878 247.494C282.481 249.291 294.289 256.651 300.479 264.188C303.274 267.592 305.058 270.857 307.509 274.427C299.551 274.061 293.565 274.834 285.967 277.153C285.115 277.444 284.189 277.808 283.337 278.124C273.65 271.319 263.542 269.866 252.086 269.937C257.997 260.927 263.898 253.718 272.878 247.494Z" fill="white"/>
<path d="M434.07 177.316C436.395 177.138 438.651 177.371 440.677 178.561C449.164 183.549 447.667 192.023 446.104 199.692C443.645 211.769 439.587 221.219 433.81 231.794L431.07 236.263C431.36 231.212 430.927 227.245 429.815 222.295C427 209.782 416.445 183.662 434.07 177.316Z" fill="white"/>
<path d="M397.255 299.979C397.933 300.72 399.406 305.163 399.854 306.445C404.609 320.081 407.107 333.149 407.08 347.588C400.27 343.264 392.766 340.141 384.901 338.357C378.963 337.06 371.8 336.726 365.695 337.078C366.807 336.322 368.167 335.521 369.341 334.825C382.965 326.718 392.862 315.482 397.255 299.979Z" fill="white"/>
<path d="M227.985 382.153C237.166 389.693 247.121 394.725 258.368 398.389C254.243 401.392 251.433 402.97 246.961 405.253C238.87 409.242 233.762 411.026 225.01 412.957C223.205 400.941 223.512 393.679 227.985 382.153Z" fill="white"/>
</g>
<defs>
<clipPath id="clip0_20_2">
<rect width="612" height="612" fill="white"/>
</clipPath>
</defs>
</svg>
