<svg width="725" height="155" viewBox="0 0 725 155" fill="none" xmlns="http://www.w3.org/2000/svg">
<path d="M31.2727 30.9091V124H6V30.9091H31.2727ZM43.25 124V30.9091H68.5227V103.636H106.159V124H43.25ZM140.557 124H113.284L144.011 30.9091H178.557L209.284 124H182.011L161.648 56.5455H160.92L140.557 124ZM135.466 87.2727H186.739V106.182H135.466V87.2727ZM243.523 30.9091V124H218.25V30.9091H243.523ZM255.5 124V30.9091H280.773V68.5455H282.045L310.045 30.9091H339.5L308.045 72.3636L340.227 124H310.045L289.136 89.0909L280.773 100V124H255.5ZM471.955 51.2727V30.9091H552.864V51.2727H524.864V124H499.955V51.2727H471.955ZM648.182 77.4545C648.182 87.8182 646.167 96.5606 642.136 103.682C638.106 110.773 632.667 116.152 625.818 119.818C618.97 123.455 611.333 125.273 602.909 125.273C594.424 125.273 586.758 123.439 579.909 119.773C573.091 116.076 567.667 110.682 563.636 103.591C559.636 96.4697 557.636 87.7576 557.636 77.4545C557.636 67.0909 559.636 58.3636 563.636 51.2727C567.667 44.1515 573.091 38.7727 579.909 35.1364C586.758 31.4697 594.424 29.6364 602.909 29.6364C611.333 29.6364 618.97 31.4697 625.818 35.1364C632.667 38.7727 638.106 44.1515 642.136 51.2727C646.167 58.3636 648.182 67.0909 648.182 77.4545ZM622.182 77.4545C622.182 71.8788 621.439 67.1818 619.955 63.3636C618.5 59.5151 616.333 56.6061 613.455 54.6364C610.606 52.6364 607.091 51.6364 602.909 51.6364C598.727 51.6364 595.197 52.6364 592.318 54.6364C589.47 56.6061 587.303 59.5151 585.818 63.3636C584.364 67.1818 583.636 71.8788 583.636 77.4545C583.636 83.0303 584.364 87.7424 585.818 91.5909C587.303 95.4091 589.47 98.3182 592.318 100.318C595.197 102.288 598.727 103.273 602.909 103.273C607.091 103.273 610.606 102.288 613.455 100.318C616.333 98.3182 618.5 95.4091 619.955 91.5909C621.439 87.7424 622.182 83.0303 622.182 77.4545Z" fill="white"/>
<path d="M401.618 13.1702L401.725 13.1638C421.679 12.2138 441.201 19.1861 456.039 32.5625C473.178 47.9959 482.06 68.5495 483.305 91.459C483.347 92.2123 483.425 93.9045 483.212 94.5821C482.29 97.5159 479.75 100.995 477.75 103.203C468.383 113.541 454.152 118.735 440.576 120.322C437.791 120.648 435.424 120.706 432.643 120.85C427.804 128.381 420.623 134.03 412.564 137.769C407.539 140.021 402.163 141.389 396.672 141.81C381.89 143.032 367.229 138.32 355.924 128.717C343.811 118.152 336.349 103.238 335.156 87.2088C333.933 68.944 339.939 50.9303 351.878 37.0534C362.382 25.0358 376.689 16.9828 392.412 14.2375C395.693 13.6433 398.332 13.4086 401.618 13.1702Z" fill="black"/>
<path d="M396.233 57.5853C396.309 57.7086 396.259 57.7441 396.104 57.8725C387.656 64.8683 384.028 77.9421 389.959 87.6541C392.238 91.3859 396.71 94.5682 400.986 95.4526C404.486 96.1769 408.506 95.84 411.552 93.8469C415.755 91.2888 417.745 85.3513 414.908 81.071C413.42 78.8158 409.936 76.9965 407.422 78.6721C406.417 79.3429 405.739 80.9467 406.561 81.968C407.585 83.1893 410.082 82.1583 410.924 83.633C412.975 87.225 409.187 90.7995 405.519 89.7287C401.106 88.4404 399.632 83.6233 400.769 79.5847C401.541 76.845 403.428 74.9752 405.826 73.6773C411.774 70.8318 418.638 73.9928 421.417 79.674C423.353 83.633 423.431 88.0084 422.076 92.1528C418.727 102.397 406.399 106.727 396.684 103.363C390.919 101.36 385.983 96.9545 383.309 91.4849C380.469 85.7047 380.029 79.0362 382.085 72.9326C384.565 65.7208 389.484 60.8565 396.233 57.5853Z" fill="white"/>
<path d="M414.072 13.082C414.194 13.0675 414.223 13.0954 414.355 13.132C416.199 14.9251 419.007 19.5844 420.129 21.9707C423.355 28.8249 424.293 36.5342 422.804 43.9618C422.335 46.1978 421.659 48.0971 420.895 50.2363C420.461 49.2055 419.489 47.7436 418.892 46.7682C415.727 41.5991 411.982 37.6448 407.315 33.7686C401.777 29.4889 396.927 26.8707 390.188 24.7878C386.861 23.7595 384.662 23.1542 381.132 22.803C391.596 16.5847 401.931 13.5525 414.072 13.082Z" fill="white"/>
<path d="M434.576 15.8728C436.984 16.6563 439.366 17.5191 441.718 18.4601C442.382 21.4407 443.182 24.2751 443.59 27.3173C443.764 28.6215 443.635 29.9755 443.828 31.2645C443.881 31.6176 443.928 31.8737 444.237 32.0861C444.511 32.274 444.941 32.418 445.272 32.3098C445.489 32.2392 445.634 32.1143 445.748 31.9171C446.642 30.3535 444.885 21.7465 444.395 19.743C448.291 21.4501 451.944 23.7954 455.433 26.2123C456.038 26.6318 456.593 27.0856 457.132 27.587C457.64 30.0291 457.746 32.9604 457.705 35.4515C453.71 31.5151 448.937 34.0332 447.701 38.8421C446.332 44.0533 449.814 49.0393 449.756 54.0984C449.716 57.7701 447.074 61.9685 444.501 64.4453C443.608 65.2654 442.706 66.077 441.797 66.8799C440.095 64.313 439.158 63.2218 437.12 60.9372C440.702 55.8878 443.301 50.9943 444.532 44.8437C444.824 43.3878 442.811 42.8789 442.399 44.4659C440.985 49.9108 438.979 54.9271 435.408 59.3362C434.187 58.1528 433.269 57.4292 431.931 56.4197C432.621 55.2309 433.273 54.0205 433.886 52.7903C434.68 51.1619 435.287 49.4854 435.849 47.7676C439.476 36.6862 438.313 26.6536 434.576 15.8728Z" fill="white"/>
<path d="M484.797 69.8494C485.486 70.4931 486.871 79.0683 486.966 80.4488C487.118 82.6506 487.72 86.5261 487.412 88.7609C486.924 90.4035 485.577 92.4257 484.537 93.681C475.27 104.869 461.191 109.44 447.278 110.932C446.339 111.031 445.43 111.079 444.489 111.132C445.495 109.057 446.135 107.381 446.914 105.215C449.823 104.354 452.995 102.938 455.686 101.575C466.654 96.0498 475.699 87.3445 481.638 76.5976C482.582 74.888 484.198 71.6814 484.797 69.8494Z" fill="white"/>
<path d="M472.365 43.2661C474.085 44.781 478.118 51.887 479.214 54.2277C475.284 69.8544 466.198 81.9342 452.393 90.2134C451.287 90.8638 450.148 91.5113 448.987 92.055C449.09 88.1106 448.518 83.9487 447.558 80.1266C461.653 71.8223 469.796 59.2788 472.365 43.2661Z" fill="white"/>
<path d="M374.18 26.4998C379.314 26.3232 385.998 28.1461 390.777 29.9525C400.878 33.7704 408.246 40.5333 414.045 49.5418C410.963 49.1681 407.279 49.3201 404.215 49.7455C399.149 45.72 393.078 42.2975 386.929 40.2794C379.283 37.7202 370.472 37.0567 362.473 37.7537C364.268 35.6714 365.274 34.2306 367.389 32.3317C368.294 32.194 369.583 32.2144 370.526 32.2069C375.113 32.1701 379.716 32.7541 384.148 33.9368C385.912 34.428 387.547 35.0895 389.287 35.683C390.555 36.1154 391.788 35.4972 390.721 34.1544C390.394 33.7432 389.877 33.571 389.397 33.3877C384.756 31.6137 379.878 30.5243 374.925 30.1375C373.252 30.005 371.61 29.9864 369.917 29.9689C370.849 28.9778 373.038 27.2166 374.18 26.4998Z" fill="white"/>
<path d="M376.681 68.9765L378.025 68.9323C377.039 71.4133 376.172 74.4898 375.981 77.1305C375.232 77.4673 374.487 77.812 373.746 78.1653C366.702 81.5515 360.356 87.2687 356.789 94.2498C355.704 96.373 355.06 98.1486 354.275 100.393C353.483 99.5097 353.058 99.0146 352.479 97.9855C350.157 92.6596 348.793 84.6523 348.654 78.8905C356.8 72.2269 366.348 69.5532 376.681 68.9765Z" fill="white"/>
<path d="M418.351 13C419.55 13.1665 420.979 13.1864 422.128 13.3316C424.694 13.6559 429.671 14.3682 431.963 15.352C432.155 15.7432 432.321 16.1962 432.479 16.6083C436.368 26.7196 437.163 38.3164 433.238 48.5421C432.613 50.1725 431.94 51.6022 431.156 53.1489C430.789 53.855 430.377 54.5383 429.973 55.2243C428.817 54.1531 424.921 52.269 423.289 51.7532C424.326 49.6144 425.293 45.7005 425.696 43.3417C427.536 32.5682 424.661 21.8459 418.351 13Z" fill="white"/>
<path d="M461.928 31.5068C465.114 34.3681 467.779 37.1079 470.419 40.5257C470.339 41.2718 470.253 42.0171 470.159 42.7615C468.848 53.3466 463.955 63.1645 456.294 70.5854C454.522 72.3067 452.389 73.9891 450.439 75.491C449.345 76.3006 448.042 77.1268 446.896 77.8869C446.136 75.588 445.195 72.9202 444.047 70.7777C445.702 69.5505 447.967 67.3802 449.374 65.9158C456.604 58.3917 461.283 48.2961 461.902 37.8419C462.032 35.6303 461.99 33.7393 461.928 31.5068Z" fill="white"/>
<path d="M365.856 39.7538C367.911 39.5153 371.55 39.7301 373.615 39.9092C384.439 40.8479 392.46 43.9476 401.191 50.2974C397.311 51.3532 395.268 52.0595 391.76 53.8488C390.749 53.2901 389.012 52.6803 387.908 52.2722C376.457 48.2491 365.388 48.8164 353.951 52.3569C355.256 49.2866 358.579 42.6243 360.759 40.237C362.324 39.9488 364.261 39.8558 365.856 39.7538Z" fill="white"/>
<path d="M401.226 108.707C401.347 108.723 401.362 108.758 401.48 108.833C401.856 109.728 402.086 111.861 402.174 112.893C402.64 118.363 401.431 123.913 398.323 128.48C397.503 129.686 396.352 130.889 395.394 132.021C390.737 131.277 387.421 130.731 382.902 129.03C381.276 128.454 379.933 127.827 378.374 127.1C379.845 126.901 380.884 126.575 382.253 125.954C385.952 124.248 388.995 121.385 390.923 117.797C391.518 116.668 391.905 115.595 392.352 114.405C394.896 113.228 397.475 111.648 399.667 109.905C400.185 109.494 400.689 109.095 401.226 108.707Z" fill="white"/>
<path d="M369.561 51.8048C376.769 51.3698 382.802 52.8783 389.498 55.1795C387.834 56.3829 386.178 57.5871 384.722 59.0397C378.412 57.4652 371.838 57.9844 365.511 59.0803C359.178 60.3773 355.743 61.8819 350.06 64.5542C350.804 61.4102 351.71 58.1073 352.902 55.105C358.047 53.0739 364.052 52.0684 369.561 51.8048Z" fill="white"/>
<path d="M481.833 60.5475C482.248 60.8559 483.687 65.2877 483.58 65.8656C483.323 67.2645 482.48 69.3952 481.903 70.73C475.618 85.2942 463.636 96.0198 449.064 101.98C448.647 102.15 448.14 102.308 447.707 102.454C448.098 100.606 448.431 98.7468 448.707 96.878C450.023 96.2654 451.5 95.5557 452.776 94.8694C463.979 88.8532 473.042 79.512 478.718 68.1328C479.836 65.8768 481.115 62.9491 481.833 60.5475Z" fill="white"/>
<path d="M375.667 79.7175L375.729 79.7496C375.844 79.9962 375.82 80.4476 375.82 80.7408C375.821 82.5484 375.946 84.2008 376.323 85.9744C375.756 86.3103 375.312 86.6851 374.809 87.0977C367.787 92.8653 364.602 99.2659 363.724 108.202C362.391 107.34 361.095 106.424 359.837 105.456C358.503 104.431 357.331 103.332 356.103 102.186C356.48 101.336 356.939 99.4775 357.357 98.4183C360.791 89.7072 367.24 83.5309 375.667 79.7175Z" fill="white"/>
<path d="M419.808 103.009C426.916 106.621 430.935 111.512 433.056 119.132C432.305 119.702 431.077 120.936 430.324 121.615C429.19 122.638 428.284 123.34 427.05 124.247C426.019 124.981 425.074 125.575 423.999 126.245C423.721 117.616 421.264 112.165 415.666 105.737C417.007 105.133 418.645 103.909 419.808 103.009Z" fill="white"/>
<path d="M424.627 97.3243L425.802 97.503C432.49 98.5408 437.147 101.119 441.163 106.613C440.463 108.995 437.866 113.126 436.31 115.171L434.858 117.037C433.061 110.042 427.608 104.769 421.48 101.357C422.822 100.06 423.625 98.8563 424.627 97.3243Z" fill="white"/>
<path d="M413.462 106.822C413.733 106.904 413.811 107.082 414.035 107.33C419.292 113.101 422.11 119.667 421.677 127.541C419.456 128.631 418.26 129.115 415.959 129.925C414.665 130.369 413.35 130.744 412.017 131.049C414.084 122.912 413.359 115.623 409.744 108.055C411.042 107.699 412.196 107.276 413.462 106.822Z" fill="white"/>
<path d="M406.39 108.699L407.517 108.601C407.58 108.723 407.642 108.846 407.701 108.97C411.17 116.148 411.988 124.066 409.347 131.665C407.014 131.993 404.666 132.21 402.312 132.315C400.979 132.351 399.615 132.322 398.278 132.31C404.331 124.271 405.235 118.606 403.921 108.835C404.74 108.801 405.576 108.777 406.39 108.699Z" fill="white"/>
<path d="M358.89 110.078C359.43 110.25 361.607 111.714 362.273 112.101C371.029 117.191 379.902 118.336 389.555 115.436C388.432 117.883 387.89 118.753 385.99 120.689C382.732 123.769 380.026 124.839 375.619 125.519C374.037 124.769 372.795 123.878 371.381 122.894C366.13 119.238 362.586 115.199 358.89 110.078Z" fill="white"/>
<path d="M412.152 54.6062C414.017 54.479 415.891 54.6599 417.698 55.1417C421.763 59.4915 422.761 65.904 421.322 71.53C419.678 70.0292 418.615 69.3875 416.584 68.5446L414.373 67.7349C411.855 62.2855 408.995 59.392 403.363 57.0875C406.11 55.5923 409.048 54.8429 412.152 54.6062Z" fill="white"/>
<path d="M372.979 60.3324C376.402 60.0449 379.72 60.4238 383.091 60.9265C381.868 62.2415 381.204 63.2098 380.239 64.6749C371.203 64.5851 363.47 65.7856 355.206 69.7194C353.033 70.7766 350.811 72.1804 348.808 73.5395C348.954 71.5484 349.181 69.5641 349.487 67.5918C351.134 66.7063 352.515 65.8777 354.251 65.0671C360.156 62.3698 366.501 60.7657 372.979 60.3324Z" fill="white"/>
<path d="M376.808 88.3339C376.905 88.43 376.908 88.4057 376.94 88.5193C377.458 90.3405 378.152 92.1249 379.063 93.7928C374.084 99.7089 373.157 104.871 373.419 112.296C372.048 111.828 370.782 111.503 369.375 110.976C368.07 110.456 367.057 109.925 365.841 109.26C366.1 107.67 366.136 106.263 366.498 104.591C368.075 97.312 371.146 92.887 376.808 88.3339Z" fill="white"/>
<path d="M430.956 89.9454C431.724 89.8454 433.402 89.9299 434.165 90.0046C438.291 90.4104 440.773 91.5793 444.082 93.9053C444.045 97.3051 443.057 100.865 442.158 104.117C441.79 103.652 441.139 102.98 440.723 102.522C437.802 99.2458 433.818 97.1605 429.619 95.9615C428.439 95.6237 426.894 95.4266 425.66 95.2431C426.41 93.7034 426.832 92.088 427.218 90.4318C428.381 90.1444 429.754 90.0396 430.956 89.9454Z" fill="white"/>
<path d="M433.122 63.9312C434.35 64.6885 437.474 69.0824 438.368 70.4883C439.115 71.661 439.545 72.4648 439.192 73.8618C437.859 79.1285 435.577 82.0041 431.121 84.8165C429.792 85.6194 429.08 85.9786 427.632 86.5329C427.694 84.0331 427.444 82.5244 426.835 80.1615C431.349 75.8161 434.08 70.3436 433.122 63.9312Z" fill="white"/>
<path d="M421.331 56.2643C423.758 56.9739 426.846 58.7698 428.88 60.2695C430.308 61.3226 430.46 61.5803 430.728 63.1949C431.522 67.9819 430.661 71.9395 427.775 75.8626C427.17 76.6421 426.731 77.146 426.051 77.8654C425.272 76.2713 424.404 74.4364 423.096 73.2142C425.215 67.9135 424.366 61.0469 421.331 56.2643Z" fill="white"/>
<path d="M393.583 68.2935C396.927 68.0305 398.884 68.4326 401.802 69.9026C399.577 71.2278 397.184 74.2179 396.347 76.6547C395.012 80.5437 395.084 83.7387 396.782 87.4171C397.238 88.3646 397.784 89.1219 398.4 89.9674C394.01 87.2113 391.239 83.5552 390.829 78.2206C390.599 75.2276 390.98 71.2074 392.609 68.5951C392.796 68.2964 393.265 68.3122 393.583 68.2935Z" fill="white"/>
<path d="M380.171 95.8818C380.312 95.9954 381.485 97.5409 381.71 97.8205C382.551 98.8544 383.422 99.8651 384.322 100.848C382.254 105.654 382.224 107.614 382.811 112.796L380.241 112.908C378.751 112.937 377.259 112.866 375.778 112.695C375.213 105.605 375.989 101.725 380.171 95.8818Z" fill="white"/>
<path d="M400.585 58.6428C403.705 59.2265 407.541 61.6177 409.552 64.0663C410.46 65.172 411.04 66.2328 411.836 67.3926C409.251 67.2738 407.306 67.5246 404.838 68.2783C404.561 68.3726 404.26 68.491 403.983 68.5936C400.836 66.3828 397.552 65.9109 393.831 65.9337C395.751 63.0066 397.668 60.6648 400.585 58.6428Z" fill="white"/>
<path d="M452.952 35.844C453.708 35.786 454.441 35.8619 455.099 36.2485C457.856 37.8689 457.37 40.622 456.862 43.1133C456.063 47.0369 454.744 50.1068 452.868 53.5424L451.978 54.9943C452.072 53.3533 451.931 52.0645 451.57 50.4565C450.655 46.3913 447.226 37.9056 452.952 35.844Z" fill="white"/>
<path d="M440.992 75.694C441.212 75.9348 441.691 77.3784 441.836 77.7949C443.381 82.2247 444.192 86.4701 444.184 91.1611C441.971 89.7563 439.533 88.7418 436.978 88.1622C435.049 87.7409 432.722 87.6321 430.739 87.7467C431.1 87.5011 431.542 87.2409 431.923 87.0147C436.349 84.3809 439.564 80.7306 440.992 75.694Z" fill="white"/>
<path d="M386 102.39C388.983 104.84 392.217 106.474 395.871 107.665C394.531 108.64 393.618 109.153 392.165 109.895C389.536 111.191 387.877 111.77 385.034 112.397C384.447 108.494 384.547 106.135 386 102.39Z" fill="white"/>
</svg>
